<?xml version="1.0" encoding="utf-8" ?>
<svg baseProfile="full" height="1000px" version="1.1" width="1000px" xmlns="http://www.w3.org/2000/svg" xmlns:ev="http://www.w3.org/2001/xml-events" xmlns:xlink="http://www.w3.org/1999/xlink"><defs /><polygon clip-path="url(#border_clip)" fill="#ffffff" fill-rule="evenodd" points="0.5,1000.5 1000.5,1000.5 1000.5,0.5 0.5000000000000568,0.4999999999998863 0.4999999999998863,1000.4999999999999" stroke-width="0" /><polyline clip-path="url(#border_clip)" fill="none" points="0.5,1000.5 1000.5,1000.5 1000.5,0.5 0.5000000000000568,0.4999999999998863 0.4999999999998863,1000.4999999999999 10.5,990.5" stroke="#ffffff" stroke-linecap="round" stroke-width="1" /><text clip-path="url(#border_clip)" fill="black" style="font-family: Comic Sans MS; font-size: 33.0; font-style: normal;" text-anchor="start" x="9.5" y="981.5">TOMISPOG</text><text clip-path="url(#border_clip)" fill="#ff0000" style="font-family: Verdana; font-size: 8.25; font-style: normal;" text-anchor="middle" x="559.5" y="478.25">living room</text><text clip-path="url(#border_clip)" fill="#ff0000" style="font-family: Verdana; font-size: 8.25; font-style: normal;" text-anchor="middle" x="539.5" y="518.25">corridor</text><text clip-path="url(#border_clip)" fill="#ff0000" style="font-family: Verdana; font-size: 8.25; font-style: normal;" text-anchor="middle" x="559.5" y="598.25">kitchen diner combo</text><text clip-path="url(#border_clip)" fill="#ff0000" style="font-family: Verdana; font-size: 8.25; font-style: normal;" text-anchor="middle" x="579.5" y="538.25">bedroom</text><text clip-path="url(#border_clip)" fill="#ff0000" style="font-family: Verdana; font-size: 8.25; font-style: normal;" text-anchor="middle" x="659.5" y="458.25">bedroom</text><text clip-path="url(#border_clip)" fill="#ff0000" style="font-family: Verdana; font-size: 8.25; font-style: normal;" text-anchor="middle" x="539.5" y="478.25">bedroom</text><text clip-path="url(#border_clip)" fill="#ff0000" style="font-family: Verdana; font-size: 8.25; font-style: normal;" text-anchor="middle" x="519.5" y="418.25">bedroom</text><polyline clip-path="url(#border_clip)" fill="none" points="500.5,500.5 0.5,1000.5" stroke="#ffffff" stroke-linecap="round" stroke-width="1" /><polyline clip-path="url(#border_clip)" fill="none" points="615.56,500.5 500.5,500.5 500.5,448.35329393359984 615.56,448.35329393359984 615.56,500.5" stroke="#ff0000" stroke-linecap="round" stroke-width="1" /><polyline clip-path="url(#border_clip)" fill="none" points="584.8881856540085,547.9 500.5,547.9 500.5,500.5 584.8881856540085,500.5 584.8881856540085,547.9" stroke="#ff0000" stroke-linecap="round" stroke-width="1" /><polyline clip-path="url(#border_clip)" fill="none" points="618.467332123412,636.06 500.5,636.06 500.5,547.9 618.467332123412,547.9 618.467332123412,636.06" stroke="#ff0000" stroke-linecap="round" stroke-width="1" /><polyline clip-path="url(#border_clip)" fill="none" points="615.56,580.9 535.9580099502488,580.9 535.9580099502488,500.5 615.56,500.5 615.56,580.9" stroke="#ff0000" stroke-linecap="round" stroke-width="1" /><polyline clip-path="url(#border_clip)" fill="none" points="717.62,483.6266625403018 615.56,483.6266625403018 615.56,448.35329393359984 717.62,448.35329393359984 717.62,483.6266625403018" stroke="#ff0000" stroke-linecap="round" stroke-width="1" /><polyline clip-path="url(#border_clip)" fill="none" points="595.26,500.5 500.5,500.5 500.5,462.50928661882654 595.26,462.50928661882654 595.26,500.5" stroke="#ff0000" stroke-linecap="round" stroke-width="1" /><polyline clip-path="url(#border_clip)" fill="none" points="552.18,448.35329393359984 500.5,448.35329393359984 500.5,378.69385120914166 552.18,378.69385120914166 552.18,448.35329393359984" stroke="#ff0000" stroke-linecap="round" stroke-width="1" /><polyline clip-path="url(#border_clip)" fill="none" points="578.3,509.5 579.3,509.5" stroke="black" stroke-linecap="round" stroke-width="1" /><polyline clip-path="url(#border_clip)" fill="none" points="526.24,514.32 527.24,514.32" stroke="black" stroke-linecap="round" stroke-width="1" /><polyline clip-path="url(#border_clip)" fill="none" points="579.16,534.46 580.16,534.46" stroke="black" stroke-linecap="round" stroke-width="1" /><polyline clip-path="url(#border_clip)" fill="none" points="522.84,522.76 523.84,522.76" stroke="black" stroke-linecap="round" stroke-width="1" /><polyline clip-path="url(#border_clip)" fill="none" points="508.16,501.6 509.16,501.6" stroke="black" stroke-linecap="round" stroke-width="1" /><polyline clip-path="url(#border_clip)" fill="none" points="528.54,504.34 529.54,504.34" stroke="black" stroke-linecap="round" stroke-width="1" /><polyline clip-path="url(#border_clip)" fill="none" points="504.06,526.72 505.06,526.72" stroke="black" stroke-linecap="round" stroke-width="1" /><polyline clip-path="url(#border_clip)" fill="none" points="604.12,591.04 605.12,591.04" stroke="black" stroke-linecap="round" stroke-width="1" /><polyline clip-path="url(#border_clip)" fill="none" points="516.44,576.44 517.44,576.44" stroke="black" stroke-linecap="round" stroke-width="1" /><polyline clip-path="url(#border_clip)" fill="none" points="524.94,561.34 525.94,561.34" stroke="black" stroke-linecap="round" stroke-width="1" /><polyline clip-path="url(#border_clip)" fill="none" points="549.08,614.96 550.08,614.96" stroke="black" stroke-linecap="round" stroke-width="1" /><polyline clip-path="url(#border_clip)" fill="none" points="561.48,579.7 562.48,579.7" stroke="black" stroke-linecap="round" stroke-width="1" /><polyline clip-path="url(#border_clip)" fill="none" points="535.0,564.48 536.0,564.48" stroke="black" stroke-linecap="round" stroke-width="1" /><polyline clip-path="url(#border_clip)" fill="none" points="568.64,588.62 569.64,588.62" stroke="black" stroke-linecap="round" stroke-width="1" /><polyline clip-path="url(#border_clip)" fill="none" points="557.62,599.58 558.62,599.58" stroke="black" stroke-linecap="round" stroke-width="1" /><polyline clip-path="url(#border_clip)" fill="none" points="549.26,611.7 550.26,611.7" stroke="black" stroke-linecap="round" stroke-width="1" /><polyline clip-path="url(#border_clip)" fill="none" points="578.5,606.8 579.5,606.8" stroke="black" stroke-linecap="round" stroke-width="1" /><polyline clip-path="url(#border_clip)" fill="none" points="523.14,588.92 524.14,588.92" stroke="black" stroke-linecap="round" stroke-width="1" /><polyline clip-path="url(#border_clip)" fill="none" points="521.5,570.94 522.5,570.94" stroke="black" stroke-linecap="round" stroke-width="1" /><polyline clip-path="url(#border_clip)" fill="none" points="553.7,580.66 554.7,580.66" stroke="black" stroke-linecap="round" stroke-width="1" /><polyline clip-path="url(#border_clip)" fill="none" points="600.5,578.56 601.5,578.56" stroke="black" stroke-linecap="round" stroke-width="1" /><polyline clip-path="url(#border_clip)" fill="none" points="612.58,577.78 613.58,577.78" stroke="black" stroke-linecap="round" stroke-width="1" /><polyline clip-path="url(#border_clip)" fill="none" points="509.02,591.26 510.02,591.26" stroke="black" stroke-linecap="round" stroke-width="1" /><polyline clip-path="url(#border_clip)" fill="none" points="531.42,619.06 532.42,619.06" stroke="black" stroke-linecap="round" stroke-width="1" /><polyline clip-path="url(#border_clip)" fill="none" points="523.24,567.4 524.24,567.4" stroke="black" stroke-linecap="round" stroke-width="1" /><polyline clip-path="url(#border_clip)" fill="none" points="542.84,578.44 543.84,578.44" stroke="black" stroke-linecap="round" stroke-width="1" /><polyline clip-path="url(#border_clip)" fill="none" points="539.92,595.3 540.92,595.3" stroke="black" stroke-linecap="round" stroke-width="1" /><polyline clip-path="url(#border_clip)" fill="none" points="561.46,604.38 562.46,604.38" stroke="black" stroke-linecap="round" stroke-width="1" /><polyline clip-path="url(#border_clip)" fill="none" points="586.38,605.14 587.38,605.14" stroke="black" stroke-linecap="round" stroke-width="1" /><polyline clip-path="url(#border_clip)" fill="none" points="558.0,562.96 559.0,562.96" stroke="black" stroke-linecap="round" stroke-width="1" /><polyline clip-path="url(#border_clip)" fill="none" points="546.44,541.02 547.44,541.02" stroke="black" stroke-linecap="round" stroke-width="1" /><polyline clip-path="url(#border_clip)" fill="none" points="556.52,531.34 557.52,531.34" stroke="black" stroke-linecap="round" stroke-width="1" /><polyline clip-path="url(#border_clip)" fill="none" points="543.52,546.66 544.52,546.66" stroke="black" stroke-linecap="round" stroke-width="1" /><polyline clip-path="url(#border_clip)" fill="none" points="556.12,503.4 557.12,503.4" stroke="black" stroke-linecap="round" stroke-width="1" /><polyline clip-path="url(#border_clip)" fill="none" points="595.84,576.3199999999999 596.84,576.3199999999999" stroke="black" stroke-linecap="round" stroke-width="1" /><polyline clip-path="url(#border_clip)" fill="none" points="576.3199999999999,524.6 577.3199999999999,524.6" stroke="black" stroke-linecap="round" stroke-width="1" /><polyline clip-path="url(#border_clip)" fill="none" points="576.54,518.92 577.54,518.92" stroke="black" stroke-linecap="round" stroke-width="1" /><polyline clip-path="url(#border_clip)" fill="none" points="544.02,539.14 545.02,539.14" stroke="black" stroke-linecap="round" stroke-width="1" /><polyline clip-path="url(#border_clip)" fill="none" points="546.66,539.2 547.66,539.2" stroke="black" stroke-linecap="round" stroke-width="1" /><polyline clip-path="url(#border_clip)" fill="none" points="573.62,522.44 574.62,522.44" stroke="black" stroke-linecap="round" stroke-width="1" /><polyline clip-path="url(#border_clip)" fill="none" points="556.62,501.32 557.62,501.32" stroke="black" stroke-linecap="round" stroke-width="1" /><polyline clip-path="url(#border_clip)" fill="none" points="554.02,567.06 555.02,567.06" stroke="black" stroke-linecap="round" stroke-width="1" /><polyline clip-path="url(#border_clip)" fill="none" points="587.8,559.1800000000001 588.8,559.1800000000001" stroke="black" stroke-linecap="round" stroke-width="1" /><polyline clip-path="url(#border_clip)" fill="none" points="560.14,580.26 561.14,580.26" stroke="black" stroke-linecap="round" stroke-width="1" /><polyline clip-path="url(#border_clip)" fill="none" points="557.94,547.28 558.94,547.28" stroke="black" stroke-linecap="round" stroke-width="1" /><polyline clip-path="url(#border_clip)" fill="none" points="578.36,570.28 579.36,570.28" stroke="black" stroke-linecap="round" stroke-width="1" /><polyline clip-path="url(#border_clip)" fill="none" points="590.84,566.3199999999999 591.84,566.3199999999999" stroke="black" stroke-linecap="round" stroke-width="1" /><polyline clip-path="url(#border_clip)" fill="none" points="599.28,538.1 600.28,538.1" stroke="black" stroke-linecap="round" stroke-width="1" /><polyline clip-path="url(#border_clip)" fill="none" points="702.16,474.2 703.16,474.2" stroke="black" stroke-linecap="round" stroke-width="1" /><polyline clip-path="url(#border_clip)" fill="none" points="673.3,475.8 674.3,475.8" stroke="black" stroke-linecap="round" stroke-width="1" /><polyline clip-path="url(#border_clip)" fill="none" points="639.76,470.64 640.76,470.64" stroke="black" stroke-linecap="round" stroke-width="1" /><polyline clip-path="url(#border_clip)" fill="none" points="696.82,471.88 697.82,471.88" stroke="black" stroke-linecap="round" stroke-width="1" /><polyline clip-path="url(#border_clip)" fill="none" points="662.38,466.0 663.38,466.0" stroke="black" stroke-linecap="round" stroke-width="1" /><polyline clip-path="url(#border_clip)" fill="none" points="632.74,461.62 633.74,461.62" stroke="black" stroke-linecap="round" stroke-width="1" /><polyline clip-path="url(#border_clip)" fill="none" points="715.2,472.46 716.2,472.46" stroke="black" stroke-linecap="round" stroke-width="1" /><polyline clip-path="url(#border_clip)" fill="none" points="692.8,467.72 693.8,467.72" stroke="black" stroke-linecap="round" stroke-width="1" /><polyline clip-path="url(#border_clip)" fill="none" points="658.44,466.14 659.44,466.14" stroke="black" stroke-linecap="round" stroke-width="1" /><polyline clip-path="url(#border_clip)" fill="none" points="683.8199999999999,466.24 684.8199999999999,466.24" stroke="black" stroke-linecap="round" stroke-width="1" /><polyline clip-path="url(#border_clip)" fill="none" points="720.04,479.26 721.04,479.26" stroke="black" stroke-linecap="round" stroke-width="1" /><polyline clip-path="url(#border_clip)" fill="none" points="696.54,474.44 697.54,474.44" stroke="black" stroke-linecap="round" stroke-width="1" /><polyline clip-path="url(#border_clip)" fill="none" points="645.28,474.84000000000003 646.28,474.84000000000003" stroke="black" stroke-linecap="round" stroke-width="1" /><polyline clip-path="url(#border_clip)" fill="none" points="719.66,480.1 720.66,480.1" stroke="black" stroke-linecap="round" stroke-width="1" /><polyline clip-path="url(#border_clip)" fill="none" points="688.4200000000001,464.46 689.4200000000001,464.46" stroke="black" stroke-linecap="round" stroke-width="1" /><polyline clip-path="url(#border_clip)" fill="none" points="686.12,467.15999999999997 687.12,467.15999999999997" stroke="black" stroke-linecap="round" stroke-width="1" /><polyline clip-path="url(#border_clip)" fill="none" points="680.78,479.0 681.78,479.0" stroke="black" stroke-linecap="round" stroke-width="1" /><polyline clip-path="url(#border_clip)" fill="none" points="634.02,460.86 635.02,460.86" stroke="black" stroke-linecap="round" stroke-width="1" /><polyline clip-path="url(#border_clip)" fill="none" points="565.38,491.7 566.38,491.7" stroke="black" stroke-linecap="round" stroke-width="1" /><polyline clip-path="url(#border_clip)" fill="none" points="555.26,478.44 556.26,478.44" stroke="black" stroke-linecap="round" stroke-width="1" /><polyline clip-path="url(#border_clip)" fill="none" points="576.3199999999999,479.52 577.3199999999999,479.52" stroke="black" stroke-linecap="round" stroke-width="1" /><polyline clip-path="url(#border_clip)" fill="none" points="550.98,475.78 551.98,475.78" stroke="black" stroke-linecap="round" stroke-width="1" /><polyline clip-path="url(#border_clip)" fill="none" points="533.66,466.14 534.66,466.14" stroke="black" stroke-linecap="round" stroke-width="1" /><polyline clip-path="url(#border_clip)" fill="none" points="574.82,496.58 575.82,496.58" stroke="black" stroke-linecap="round" stroke-width="1" /><polyline clip-path="url(#border_clip)" fill="none" points="517.72,469.04 518.72,469.04" stroke="black" stroke-linecap="round" stroke-width="1" /><polyline clip-path="url(#border_clip)" fill="none" points="505.78,494.74 506.78,494.74" stroke="black" stroke-linecap="round" stroke-width="1" /><polyline clip-path="url(#border_clip)" fill="none" points="554.44,466.2 555.44,466.2" stroke="black" stroke-linecap="round" stroke-width="1" /><polyline clip-path="url(#border_clip)" fill="none" points="542.18,476.14 543.18,476.14" stroke="black" stroke-linecap="round" stroke-width="1" /><polyline clip-path="url(#border_clip)" fill="none" points="511.14,476.36 512.14,476.36" stroke="black" stroke-linecap="round" stroke-width="1" /><polyline clip-path="url(#border_clip)" fill="none" points="556.46,482.72 557.46,482.72" stroke="black" stroke-linecap="round" stroke-width="1" /><polyline clip-path="url(#border_clip)" fill="none" points="564.94,467.4 565.94,467.4" stroke="black" stroke-linecap="round" stroke-width="1" /><polyline clip-path="url(#border_clip)" fill="none" points="572.02,480.0 573.02,480.0" stroke="black" stroke-linecap="round" stroke-width="1" /><polyline clip-path="url(#border_clip)" fill="none" points="571.3,470.92 572.3,470.92" stroke="black" stroke-linecap="round" stroke-width="1" /><polyline clip-path="url(#border_clip)" fill="none" points="514.46,475.06 515.46,475.06" stroke="black" stroke-linecap="round" stroke-width="1" /><polyline clip-path="url(#border_clip)" fill="none" points="505.6,499.34 506.6,499.34" stroke="black" stroke-linecap="round" stroke-width="1" /><polyline clip-path="url(#border_clip)" fill="none" points="561.16,471.78 562.16,471.78" stroke="black" stroke-linecap="round" stroke-width="1" /><polyline clip-path="url(#border_clip)" fill="none" points="522.88,393.54 523.88,393.54" stroke="black" stroke-linecap="round" stroke-width="1" /><polyline clip-path="url(#border_clip)" fill="none" points="539.0,391.48 540.0,391.48" stroke="black" stroke-linecap="round" stroke-width="1" /><polyline clip-path="url(#border_clip)" fill="none" points="500.56,425.68 501.56,425.68" stroke="black" stroke-linecap="round" stroke-width="1" /><polyline clip-path="url(#border_clip)" fill="none" points="537.24,391.7 538.24,391.7" stroke="black" stroke-linecap="round" stroke-width="1" /><polyline clip-path="url(#border_clip)" fill="none" points="540.34,415.08 541.34,415.08" stroke="black" stroke-linecap="round" stroke-width="1" /><polyline clip-path="url(#border_clip)" fill="none" points="512.82,406.74 513.82,406.74" stroke="black" stroke-linecap="round" stroke-width="1" /><polyline clip-path="url(#border_clip)" fill="none" points="525.86,439.08 526.86,439.08" stroke="black" stroke-linecap="round" stroke-width="1" /><polyline clip-path="url(#border_clip)" fill="none" points="539.86,415.6 540.86,415.6" stroke="black" stroke-linecap="round" stroke-width="1" /><polyline clip-path="url(#border_clip)" fill="none" points="533.22,414.36 534.22,414.36" stroke="black" stroke-linecap="round" stroke-width="1" /><polyline clip-path="url(#border_clip)" fill="none" points="523.44,422.5 524.44,422.5" stroke="black" stroke-linecap="round" stroke-width="1" /><polyline clip-path="url(#border_clip)" fill="none" points="526.54,439.2 527.54,439.2" stroke="black" stroke-linecap="round" stroke-width="1" /></svg>