<?xml version="1.0" encoding="utf-8" ?>
<svg baseProfile="full" height="1000px" version="1.1" width="1000px" xmlns="http://www.w3.org/2000/svg" xmlns:ev="http://www.w3.org/2001/xml-events" xmlns:xlink="http://www.w3.org/1999/xlink"><defs /><polygon clip-path="url(#border_clip)" fill="#ffffff" fill-rule="evenodd" points="0.5,1000.5 1000.5,1000.5 1000.5,0.5 0.5000000000000568,0.4999999999998863 0.4999999999998863,1000.4999999999999" stroke-width="0" /><polyline clip-path="url(#border_clip)" fill="none" points="0.5,1000.5 1000.5,1000.5 1000.5,0.5 0.5000000000000568,0.4999999999998863 0.4999999999998863,1000.4999999999999 10.5,990.5" stroke="#ffffff" stroke-linecap="round" stroke-width="1" /><text clip-path="url(#border_clip)" fill="black" style="font-family: Comic Sans MS; font-size: 33.0; font-style: normal;" text-anchor="start" x="9.5" y="981.5">TOMISPOG</text><text clip-path="url(#border_clip)" fill="#ff0000" style="font-family: Verdana; font-size: 8.25; font-style: normal;" text-anchor="middle" x="579.5" y="438.25">main living space</text><text clip-path="url(#border_clip)" fill="#ff0000" style="font-family: Verdana; font-size: 8.25; font-style: normal;" text-anchor="middle" x="639.5" y="558.25">bedroom</text><text clip-path="url(#border_clip)" fill="#ff0000" style="font-family: Verdana; font-size: 8.25; font-style: normal;" text-anchor="middle" x="519.5" y="298.25">bedroom</text><text clip-path="url(#border_clip)" fill="#ff0000" style="font-family: Verdana; font-size: 8.25; font-style: normal;" text-anchor="middle" x="639.5" y="658.25">ensuite</text><text clip-path="url(#border_clip)" fill="#ff0000" style="font-family: Verdana; font-size: 8.25; font-style: normal;" text-anchor="middle" x="559.5" y="238.25">ensuite</text><polyline clip-path="url(#border_clip)" fill="none" points="500.5,500.5 0.5,1000.5" stroke="#ffffff" stroke-linecap="round" stroke-width="1" /><polyline clip-path="url(#border_clip)" fill="none" points="663.9472511144131,500.5 500.5,500.5 500.5,392.82 663.9472511144131,392.82 663.9472511144131,500.5" stroke="#ff0000" stroke-linecap="round" stroke-width="1" /><polyline clip-path="url(#border_clip)" fill="none" points="663.9472511144131,632.513201320132 609.407251114413,632.513201320132 609.407251114413,500.5 663.9472511144131,500.5 663.9472511144131,632.513201320132" stroke="#ff0000" stroke-linecap="round" stroke-width="1" /><polyline clip-path="url(#border_clip)" fill="none" points="542.34,392.82 500.5,392.82 500.5,211.17564053537285 542.34,211.17564053537285 542.34,392.82" stroke="#ff0000" stroke-linecap="round" stroke-width="1" /><polyline clip-path="url(#border_clip)" fill="none" points="663.9472511144131,687.133201320132 620.0073023776866,687.133201320132 620.0073023776866,632.513201320132 663.9472511144131,632.513201320132 663.9472511144131,687.133201320132" stroke="#ff0000" stroke-linecap="round" stroke-width="1" /><polyline clip-path="url(#border_clip)" fill="none" points="588.14,263.57738726026366 542.34,263.57738726026366 542.34,211.17564053537285 588.14,211.17564053537285 588.14,263.57738726026366" stroke="#ff0000" stroke-linecap="round" stroke-width="1" /><polyline clip-path="url(#border_clip)" fill="none" points="663.9472511144131,632.513201320132 664.9472511144131,632.513201320132" stroke="#0000ff" stroke-linecap="round" stroke-width="5" /><polyline clip-path="url(#border_clip)" fill="none" points="663.9472511144131,500.5 664.9472511144131,500.5" stroke="#0000ff" stroke-linecap="round" stroke-width="5" /><polyline clip-path="url(#border_clip)" fill="none" points="609.407251114413,500.5 610.407251114413,500.5" stroke="#0000ff" stroke-linecap="round" stroke-width="5" /><polyline clip-path="url(#border_clip)" fill="none" points="609.407251114413,632.513201320132 610.407251114413,632.513201320132" stroke="#0000ff" stroke-linecap="round" stroke-width="5" /><polyline clip-path="url(#border_clip)" fill="none" points="663.9472511144131,687.133201320132 664.9472511144131,687.133201320132" stroke="#0000ff" stroke-linecap="round" stroke-width="5" /><polyline clip-path="url(#border_clip)" fill="none" points="663.9472511144131,632.513201320132 664.9472511144131,632.513201320132" stroke="#0000ff" stroke-linecap="round" stroke-width="5" /><polyline clip-path="url(#border_clip)" fill="none" points="620.0073023776866,632.513201320132 621.0073023776866,632.513201320132" stroke="#0000ff" stroke-linecap="round" stroke-width="5" /><polyline clip-path="url(#border_clip)" fill="none" points="620.0073023776866,687.133201320132 621.0073023776866,687.133201320132" stroke="#0000ff" stroke-linecap="round" stroke-width="5" /><polyline clip-path="url(#border_clip)" fill="none" points="642.46,500.92 643.46,500.92" stroke="black" stroke-linecap="round" stroke-width="1" /><polyline clip-path="url(#border_clip)" fill="none" points="651.3,533.44 652.3,533.44" stroke="black" stroke-linecap="round" stroke-width="1" /><polyline clip-path="url(#border_clip)" fill="none" points="623.14,530.44 624.14,530.44" stroke="black" stroke-linecap="round" stroke-width="1" /><polyline clip-path="url(#border_clip)" fill="none" points="622.94,518.96 623.94,518.96" stroke="black" stroke-linecap="round" stroke-width="1" /><polyline clip-path="url(#border_clip)" fill="none" points="627.52,510.42 628.52,510.42" stroke="black" stroke-linecap="round" stroke-width="1" /><polyline clip-path="url(#border_clip)" fill="none" points="647.02,595.88 648.02,595.88" stroke="black" stroke-linecap="round" stroke-width="1" /><polyline clip-path="url(#border_clip)" fill="none" points="651.8199999999999,516.2 652.8199999999999,516.2" stroke="black" stroke-linecap="round" stroke-width="1" /><polyline clip-path="url(#border_clip)" fill="none" points="653.88,573.68 654.88,573.68" stroke="black" stroke-linecap="round" stroke-width="1" /><polyline clip-path="url(#border_clip)" fill="none" points="621.48,619.7 622.48,619.7" stroke="black" stroke-linecap="round" stroke-width="1" /><polyline clip-path="url(#border_clip)" fill="none" points="624.28,528.02 625.28,528.02" stroke="black" stroke-linecap="round" stroke-width="1" /><polyline clip-path="url(#border_clip)" fill="none" points="621.44,517.84 622.44,517.84" stroke="black" stroke-linecap="round" stroke-width="1" /><polyline clip-path="url(#border_clip)" fill="none" points="637.5,512.1 638.5,512.1" stroke="black" stroke-linecap="round" stroke-width="1" /><polyline clip-path="url(#border_clip)" fill="none" points="625.38,606.52 626.38,606.52" stroke="black" stroke-linecap="round" stroke-width="1" /><polyline clip-path="url(#border_clip)" fill="none" points="620.6,538.82 621.6,538.82" stroke="black" stroke-linecap="round" stroke-width="1" /><polyline clip-path="url(#border_clip)" fill="none" points="639.0,515.46 640.0,515.46" stroke="black" stroke-linecap="round" stroke-width="1" /><polyline clip-path="url(#border_clip)" fill="none" points="638.9200000000001,537.46 639.9200000000001,537.46" stroke="black" stroke-linecap="round" stroke-width="1" /><polyline clip-path="url(#border_clip)" fill="none" points="645.22,542.16 646.22,542.16" stroke="black" stroke-linecap="round" stroke-width="1" /><polyline clip-path="url(#border_clip)" fill="none" points="659.04,542.66 660.04,542.66" stroke="black" stroke-linecap="round" stroke-width="1" /><polyline clip-path="url(#border_clip)" fill="none" points="637.64,516.66 638.64,516.66" stroke="black" stroke-linecap="round" stroke-width="1" /><polyline clip-path="url(#border_clip)" fill="none" points="631.46,515.48 632.46,515.48" stroke="black" stroke-linecap="round" stroke-width="1" /><polyline clip-path="url(#border_clip)" fill="none" points="643.26,589.94 644.26,589.94" stroke="black" stroke-linecap="round" stroke-width="1" /><polyline clip-path="url(#border_clip)" fill="none" points="623.96,590.4 624.96,590.4" stroke="black" stroke-linecap="round" stroke-width="1" /><polyline clip-path="url(#border_clip)" fill="none" points="534.44,250.10000000000002 535.44,250.10000000000002" stroke="black" stroke-linecap="round" stroke-width="1" /><polyline clip-path="url(#border_clip)" fill="none" points="533.42,327.84000000000003 534.42,327.84000000000003" stroke="black" stroke-linecap="round" stroke-width="1" /><polyline clip-path="url(#border_clip)" fill="none" points="513.5,326.1 514.5,326.1" stroke="black" stroke-linecap="round" stroke-width="1" /><polyline clip-path="url(#border_clip)" fill="none" points="530.24,240.2 531.24,240.2" stroke="black" stroke-linecap="round" stroke-width="1" /><polyline clip-path="url(#border_clip)" fill="none" points="534.94,350.15999999999997 535.94,350.15999999999997" stroke="black" stroke-linecap="round" stroke-width="1" /><polyline clip-path="url(#border_clip)" fill="none" points="525.56,238.56 526.56,238.56" stroke="black" stroke-linecap="round" stroke-width="1" /><polyline clip-path="url(#border_clip)" fill="none" points="513.4,228.57999999999998 514.4,228.57999999999998" stroke="black" stroke-linecap="round" stroke-width="1" /><polyline clip-path="url(#border_clip)" fill="none" points="522.88,280.74 523.88,280.74" stroke="black" stroke-linecap="round" stroke-width="1" /><polyline clip-path="url(#border_clip)" fill="none" points="521.9,300.86 522.9,300.86" stroke="black" stroke-linecap="round" stroke-width="1" /><polyline clip-path="url(#border_clip)" fill="none" points="522.42,241.27999999999997 523.42,241.27999999999997" stroke="black" stroke-linecap="round" stroke-width="1" /><polyline clip-path="url(#border_clip)" fill="none" points="505.98,233.3 506.98,233.3" stroke="black" stroke-linecap="round" stroke-width="1" /><polyline clip-path="url(#border_clip)" fill="none" points="528.9,377.32 529.9,377.32" stroke="black" stroke-linecap="round" stroke-width="1" /><polyline clip-path="url(#border_clip)" fill="none" points="502.42,379.32 503.42,379.32" stroke="black" stroke-linecap="round" stroke-width="1" /><polyline clip-path="url(#border_clip)" fill="none" points="534.82,372.94 535.82,372.94" stroke="black" stroke-linecap="round" stroke-width="1" /><polyline clip-path="url(#border_clip)" fill="none" points="528.64,375.62 529.64,375.62" stroke="black" stroke-linecap="round" stroke-width="1" /><polyline clip-path="url(#border_clip)" fill="none" points="517.24,324.46000000000004 518.24,324.46000000000004" stroke="black" stroke-linecap="round" stroke-width="1" /><polyline clip-path="url(#border_clip)" fill="none" points="504.24,286.48 505.24,286.48" stroke="black" stroke-linecap="round" stroke-width="1" /><polyline clip-path="url(#border_clip)" fill="none" points="525.28,274.64 526.28,274.64" stroke="black" stroke-linecap="round" stroke-width="1" /><polyline clip-path="url(#border_clip)" fill="none" points="531.16,295.7 532.16,295.7" stroke="black" stroke-linecap="round" stroke-width="1" /><polyline clip-path="url(#border_clip)" fill="none" points="643.34,662.34 644.34,662.34" stroke="black" stroke-linecap="round" stroke-width="1" /><polyline clip-path="url(#border_clip)" fill="none" points="622.84,674.32 623.84,674.32" stroke="black" stroke-linecap="round" stroke-width="1" /><polyline clip-path="url(#border_clip)" fill="none" points="635.1800000000001,652.24 636.1800000000001,652.24" stroke="black" stroke-linecap="round" stroke-width="1" /><polyline clip-path="url(#border_clip)" fill="none" points="643.88,649.4 644.88,649.4" stroke="black" stroke-linecap="round" stroke-width="1" /><polyline clip-path="url(#border_clip)" fill="none" points="641.94,643.0 642.94,643.0" stroke="black" stroke-linecap="round" stroke-width="1" /><polyline clip-path="url(#border_clip)" fill="none" points="647.38,641.06 648.38,641.06" stroke="black" stroke-linecap="round" stroke-width="1" /><polyline clip-path="url(#border_clip)" fill="none" points="547.24,224.3 548.24,224.3" stroke="black" stroke-linecap="round" stroke-width="1" /><polyline clip-path="url(#border_clip)" fill="none" points="547.44,233.98000000000002 548.44,233.98000000000002" stroke="black" stroke-linecap="round" stroke-width="1" /><polyline clip-path="url(#border_clip)" fill="none" points="577.8,248.26 578.8,248.26" stroke="black" stroke-linecap="round" stroke-width="1" /><polyline clip-path="url(#border_clip)" fill="none" points="540.8,227.48000000000002 541.8,227.48000000000002" stroke="black" stroke-linecap="round" stroke-width="1" /><polyline clip-path="url(#border_clip)" fill="none" points="580.04,238.65999999999997 581.04,238.65999999999997" stroke="black" stroke-linecap="round" stroke-width="1" /></svg>