<?xml version="1.0" encoding="utf-8" ?>
<svg baseProfile="full" height="1000px" version="1.1" width="1000px" xmlns="http://www.w3.org/2000/svg" xmlns:ev="http://www.w3.org/2001/xml-events" xmlns:xlink="http://www.w3.org/1999/xlink"><defs /><polygon clip-path="url(#border_clip)" fill="#ffffff" fill-rule="evenodd" points="0.5,1000.5 1000.5,1000.5 1000.5,0.5 0.5000000000000568,0.4999999999998863 0.4999999999998863,1000.4999999999999" stroke-width="0" /><polyline clip-path="url(#border_clip)" fill="none" points="0.5,1000.5 1000.5,1000.5 1000.5,0.5 0.5000000000000568,0.4999999999998863 0.4999999999998863,1000.4999999999999" stroke="#ffffff" stroke-linecap="round" stroke-width="1" /><text clip-path="url(#border_clip)" fill="black" style="font-family: Comic Sans MS; font-size: 33.0; font-style: normal;" text-anchor="start" x="9.5" y="981.5">TOMISPOG</text><text clip-path="url(#border_clip)" fill="#ff0000" style="font-family: Verdana; font-size: 8.25; font-style: normal;" text-anchor="middle" x="579.5" y="438.25">main living space</text><text clip-path="url(#border_clip)" fill="#ff0000" style="font-family: Verdana; font-size: 8.25; font-style: normal;" text-anchor="middle" x="419.5" y="478.25">bedroom</text><text clip-path="url(#border_clip)" fill="#ff0000" style="font-family: Verdana; font-size: 8.25; font-style: normal;" text-anchor="middle" x="359.5" y="518.25">ensuite</text><polyline clip-path="url(#border_clip)" fill="none" points="500.5,500.5 0.5,1000.5" stroke="#ffffff" stroke-linecap="round" stroke-width="1" /><polyline clip-path="url(#border_clip)" fill="none" points="649.6800000000001,500.5 500.5,500.5 500.5,390.5656924520713 649.6800000000001,390.5656924520713 649.6800000000001,500.5" stroke="#ff0000" stroke-linecap="round" stroke-width="1" /><polyline clip-path="url(#border_clip)" fill="none" points="500.5,500.5 345.59466437177275,500.5 345.59466437177275,454.02 500.5,454.02 500.5,500.5" stroke="#ff0000" stroke-linecap="round" stroke-width="1" /><polyline clip-path="url(#border_clip)" fill="none" points="389.3546643717728,555.3446069469835 345.59466437177275,555.3446069469835 345.59466437177275,500.5 389.3546643717728,500.5 389.3546643717728,555.3446069469835" stroke="#ff0000" stroke-linecap="round" stroke-width="1" /><polyline clip-path="url(#border_clip)" fill="none" points="420.48,489.38 421.48,489.38" stroke="black" stroke-linecap="round" stroke-width="1" /><polyline clip-path="url(#border_clip)" fill="none" points="372.92,498.92 373.92,498.92" stroke="black" stroke-linecap="round" stroke-width="1" /><polyline clip-path="url(#border_clip)" fill="none" points="468.82,472.58 469.82,472.58" stroke="black" stroke-linecap="round" stroke-width="1" /><polyline clip-path="url(#border_clip)" fill="none" points="384.9,497.5 385.9,497.5" stroke="black" stroke-linecap="round" stroke-width="1" /><polyline clip-path="url(#border_clip)" fill="none" points="453.1,486.36 454.1,486.36" stroke="black" stroke-linecap="round" stroke-width="1" /><polyline clip-path="url(#border_clip)" fill="none" points="492.98,492.56 493.98,492.56" stroke="black" stroke-linecap="round" stroke-width="1" /><polyline clip-path="url(#border_clip)" fill="none" points="482.6,471.28 483.6,471.28" stroke="black" stroke-linecap="round" stroke-width="1" /><polyline clip-path="url(#border_clip)" fill="none" points="458.76,472.4 459.76,472.4" stroke="black" stroke-linecap="round" stroke-width="1" /><polyline clip-path="url(#border_clip)" fill="none" points="439.94,464.72 440.94,464.72" stroke="black" stroke-linecap="round" stroke-width="1" /><polyline clip-path="url(#border_clip)" fill="none" points="406.22,468.48 407.22,468.48" stroke="black" stroke-linecap="round" stroke-width="1" /><polyline clip-path="url(#border_clip)" fill="none" points="454.15999999999997,465.06 455.15999999999997,465.06" stroke="black" stroke-linecap="round" stroke-width="1" /><polyline clip-path="url(#border_clip)" fill="none" points="406.91999999999996,493.78 407.91999999999996,493.78" stroke="black" stroke-linecap="round" stroke-width="1" /><polyline clip-path="url(#border_clip)" fill="none" points="451.06,483.04 452.06,483.04" stroke="black" stroke-linecap="round" stroke-width="1" /><polyline clip-path="url(#border_clip)" fill="none" points="482.82,479.48 483.82,479.48" stroke="black" stroke-linecap="round" stroke-width="1" /><polyline clip-path="url(#border_clip)" fill="none" points="387.0,497.56 388.0,497.56" stroke="black" stroke-linecap="round" stroke-width="1" /><polyline clip-path="url(#border_clip)" fill="none" points="421.62,463.94 422.62,463.94" stroke="black" stroke-linecap="round" stroke-width="1" /><polyline clip-path="url(#border_clip)" fill="none" points="447.64,464.1 448.64,464.1" stroke="black" stroke-linecap="round" stroke-width="1" /><polyline clip-path="url(#border_clip)" fill="none" points="497.46,489.82 498.46,489.82" stroke="black" stroke-linecap="round" stroke-width="1" /><polyline clip-path="url(#border_clip)" fill="none" points="368.48,516.64 369.48,516.64" stroke="black" stroke-linecap="round" stroke-width="1" /><polyline clip-path="url(#border_clip)" fill="none" points="369.74,510.32 370.74,510.32" stroke="black" stroke-linecap="round" stroke-width="1" /><polyline clip-path="url(#border_clip)" fill="none" points="376.22,516.38 377.22,516.38" stroke="black" stroke-linecap="round" stroke-width="1" /><polyline clip-path="url(#border_clip)" fill="none" points="370.14,533.58 371.14,533.58" stroke="black" stroke-linecap="round" stroke-width="1" /><polyline clip-path="url(#border_clip)" fill="none" points="361.14,512.2 362.14,512.2" stroke="black" stroke-linecap="round" stroke-width="1" /></svg>