<?xml version="1.0" encoding="utf-8" ?>
<svg baseProfile="full" height="1000px" version="1.1" width="1000px" xmlns="http://www.w3.org/2000/svg" xmlns:ev="http://www.w3.org/2001/xml-events" xmlns:xlink="http://www.w3.org/1999/xlink"><defs /><polygon clip-path="url(#border_clip)" fill="#ffffff" fill-rule="evenodd" points="0.5,1000.5 1000.5,1000.5000000000009 1000.500000000001,0.5000000000009663 0.5000000000010232,0.4999999999998863 0.4999999999998863,1000.4999999999999" stroke-width="0" /><polyline clip-path="url(#border_clip)" fill="none" points="0.5,1000.5 1000.5,1000.5000000000009 1000.500000000001,0.5000000000009663 0.5000000000010232,0.4999999999998863 0.4999999999998863,1000.4999999999999" stroke="#ffffff" stroke-linecap="round" stroke-width="1" /><polyline clip-path="url(#border_clip)" fill="none" points="0.4999999999998863,1000.4999999999999 500.4999999999999,1000.5000000000005 500.5000000000005,500.5000000000005 0.5000000000005116,500.49999999999983 0.49999999999982947,1000.4999999999998 10.5,990.5" stroke="#ffc0cb" stroke-linecap="round" stroke-width="1" /><text clip-path="url(#border_clip)" fill="#ff0000" style="font-family: Verdana; font-size: 8.25; font-style: normal;" text-anchor="middle" x="553.75" y="426.360599078341">main living space</text><text clip-path="url(#border_clip)" fill="#ff0000" style="font-family: Verdana; font-size: 8.25; font-style: normal;" text-anchor="middle" x="457.4200480913736" y="464.98">bedroom</text><text clip-path="url(#border_clip)" fill="#ff0000" style="font-family: Verdana; font-size: 8.25; font-style: normal;" text-anchor="middle" x="633.02" y="386.44561862031117">bedroom</text><text clip-path="url(#border_clip)" fill="#ff0000" style="font-family: Verdana; font-size: 8.25; font-style: normal;" text-anchor="middle" x="569.8199999999999" y="519.2033787323206">bathroom</text><polyline clip-path="url(#border_clip)" fill="none" points="10.5,990.5 0.5,1000.5" stroke="#ffffff" stroke-linecap="round" stroke-width="1" /><polyline clip-path="url(#border_clip)" fill="none" points="609.0,500.5 500.5,500.5 500.5,356.721198156682 609.0,356.721198156682 609.0,500.5" stroke="#ff0000" stroke-linecap="round" stroke-width="1" /><polyline clip-path="url(#border_clip)" fill="none" points="500.5,500.5 416.34009618274723,500.5 416.34009618274723,433.96000000000004 500.5,433.96000000000004 500.5,500.5" stroke="#ff0000" stroke-linecap="round" stroke-width="1" /><polyline clip-path="url(#border_clip)" fill="none" points="659.04,420.6700390839402 609.0,420.6700390839402 609.0,356.721198156682 659.04,356.721198156682 659.04,420.6700390839402" stroke="#ff0000" stroke-linecap="round" stroke-width="1" /><polyline clip-path="url(#border_clip)" fill="none" points="609.0,542.4067574646411 532.64,542.4067574646411 532.64,500.5 609.0,500.5 609.0,542.4067574646411" stroke="#ff0000" stroke-linecap="round" stroke-width="1" /><polyline clip-path="url(#border_clip)" fill="none" points="520.74,373.72 521.74,373.72" stroke="black" stroke-linecap="round" stroke-width="1" /><polyline clip-path="url(#border_clip)" fill="none" points="540.42,411.24 541.42,411.24" stroke="black" stroke-linecap="round" stroke-width="1" /><polyline clip-path="url(#border_clip)" fill="none" points="513.14,471.1 514.14,471.1" stroke="black" stroke-linecap="round" stroke-width="1" /><polyline clip-path="url(#border_clip)" fill="none" points="521.38,479.16 522.38,479.16" stroke="black" stroke-linecap="round" stroke-width="1" /><polyline clip-path="url(#border_clip)" fill="none" points="548.86,487.46 549.86,487.46" stroke="black" stroke-linecap="round" stroke-width="1" /><polyline clip-path="url(#border_clip)" fill="none" points="542.74,400.62 543.74,400.62" stroke="black" stroke-linecap="round" stroke-width="1" /><polyline clip-path="url(#border_clip)" fill="none" points="537.64,389.36 538.64,389.36" stroke="black" stroke-linecap="round" stroke-width="1" /><polyline clip-path="url(#border_clip)" fill="none" points="580.76,397.18 581.76,397.18" stroke="black" stroke-linecap="round" stroke-width="1" /><polyline clip-path="url(#border_clip)" fill="none" points="597.34,385.7 598.34,385.7" stroke="black" stroke-linecap="round" stroke-width="1" /><polyline clip-path="url(#border_clip)" fill="none" points="540.48,461.04 541.48,461.04" stroke="black" stroke-linecap="round" stroke-width="1" /><polyline clip-path="url(#border_clip)" fill="none" points="554.9,369.18 555.9,369.18" stroke="black" stroke-linecap="round" stroke-width="1" /><polyline clip-path="url(#border_clip)" fill="none" points="597.74,452.08 598.74,452.08" stroke="black" stroke-linecap="round" stroke-width="1" /><polyline clip-path="url(#border_clip)" fill="none" points="597.6,480.86 598.6,480.86" stroke="black" stroke-linecap="round" stroke-width="1" /><polyline clip-path="url(#border_clip)" fill="none" points="442.06,475.52 443.06,475.52" stroke="black" stroke-linecap="round" stroke-width="1" /><polyline clip-path="url(#border_clip)" fill="none" points="489.28,488.86 490.28,488.86" stroke="black" stroke-linecap="round" stroke-width="1" /><polyline clip-path="url(#border_clip)" fill="none" points="430.56,475.58 431.56,475.58" stroke="black" stroke-linecap="round" stroke-width="1" /><polyline clip-path="url(#border_clip)" fill="none" points="458.65999999999997,482.72 459.65999999999997,482.72" stroke="black" stroke-linecap="round" stroke-width="1" /><polyline clip-path="url(#border_clip)" fill="none" points="440.1,453.78 441.1,453.78" stroke="black" stroke-linecap="round" stroke-width="1" /><polyline clip-path="url(#border_clip)" fill="none" points="487.28,484.0 488.28,484.0" stroke="black" stroke-linecap="round" stroke-width="1" /><polyline clip-path="url(#border_clip)" fill="none" points="446.26,450.44 447.26,450.44" stroke="black" stroke-linecap="round" stroke-width="1" /><polyline clip-path="url(#border_clip)" fill="none" points="474.04,483.64 475.04,483.64" stroke="black" stroke-linecap="round" stroke-width="1" /><polyline clip-path="url(#border_clip)" fill="none" points="470.22,482.14 471.22,482.14" stroke="black" stroke-linecap="round" stroke-width="1" /><polyline clip-path="url(#border_clip)" fill="none" points="479.32,465.3 480.32,465.3" stroke="black" stroke-linecap="round" stroke-width="1" /><polyline clip-path="url(#border_clip)" fill="none" points="446.18,449.66 447.18,449.66" stroke="black" stroke-linecap="round" stroke-width="1" /><polyline clip-path="url(#border_clip)" fill="none" points="469.58,462.84000000000003 470.58,462.84000000000003" stroke="black" stroke-linecap="round" stroke-width="1" /><polyline clip-path="url(#border_clip)" fill="none" points="435.65999999999997,470.26 436.65999999999997,470.26" stroke="black" stroke-linecap="round" stroke-width="1" /><polyline clip-path="url(#border_clip)" fill="none" points="426.94,448.38 427.94,448.38" stroke="black" stroke-linecap="round" stroke-width="1" /><polyline clip-path="url(#border_clip)" fill="none" points="476.52,471.76 477.52,471.76" stroke="black" stroke-linecap="round" stroke-width="1" /><polyline clip-path="url(#border_clip)" fill="none" points="453.58,468.56 454.58,468.56" stroke="black" stroke-linecap="round" stroke-width="1" /><polyline clip-path="url(#border_clip)" fill="none" points="635.88,399.56 636.88,399.56" stroke="black" stroke-linecap="round" stroke-width="1" /><polyline clip-path="url(#border_clip)" fill="none" points="641.2,392.86 642.2,392.86" stroke="black" stroke-linecap="round" stroke-width="1" /><polyline clip-path="url(#border_clip)" fill="none" points="630.46,391.94 631.46,391.94" stroke="black" stroke-linecap="round" stroke-width="1" /><polyline clip-path="url(#border_clip)" fill="none" points="647.28,388.0 648.28,388.0" stroke="black" stroke-linecap="round" stroke-width="1" /><polyline clip-path="url(#border_clip)" fill="none" points="646.58,398.3 647.58,398.3" stroke="black" stroke-linecap="round" stroke-width="1" /><polyline clip-path="url(#border_clip)" fill="none" points="644.74,405.26 645.74,405.26" stroke="black" stroke-linecap="round" stroke-width="1" /><polyline clip-path="url(#border_clip)" fill="none" points="642.1,408.56 643.1,408.56" stroke="black" stroke-linecap="round" stroke-width="1" /><polyline clip-path="url(#border_clip)" fill="none" points="646.88,393.78 647.88,393.78" stroke="black" stroke-linecap="round" stroke-width="1" /><polyline clip-path="url(#border_clip)" fill="none" points="641.66,383.34000000000003 642.66,383.34000000000003" stroke="black" stroke-linecap="round" stroke-width="1" /><polyline clip-path="url(#border_clip)" fill="none" points="633.52,378.42 634.52,378.42" stroke="black" stroke-linecap="round" stroke-width="1" /><polyline clip-path="url(#border_clip)" fill="none" points="621.48,379.12 622.48,379.12" stroke="black" stroke-linecap="round" stroke-width="1" /><polyline clip-path="url(#border_clip)" fill="none" points="646.6,366.78 647.6,366.78" stroke="black" stroke-linecap="round" stroke-width="1" /><polyline clip-path="url(#border_clip)" fill="none" points="646.92,371.9 647.92,371.9" stroke="black" stroke-linecap="round" stroke-width="1" /><polyline clip-path="url(#border_clip)" fill="none" points="642.14,380.86 643.14,380.86" stroke="black" stroke-linecap="round" stroke-width="1" /><polyline clip-path="url(#border_clip)" fill="none" points="636.1800000000001,376.44 637.1800000000001,376.44" stroke="black" stroke-linecap="round" stroke-width="1" /><polyline clip-path="url(#border_clip)" fill="none" points="644.62,381.74 645.62,381.74" stroke="black" stroke-linecap="round" stroke-width="1" /><polyline clip-path="url(#border_clip)" fill="none" points="559.04,522.12 560.04,522.12" stroke="black" stroke-linecap="round" stroke-width="1" /><polyline clip-path="url(#border_clip)" fill="none" points="593.54,524.96 594.54,524.96" stroke="black" stroke-linecap="round" stroke-width="1" /><polyline clip-path="url(#border_clip)" fill="none" points="579.54,520.14 580.54,520.14" stroke="black" stroke-linecap="round" stroke-width="1" /><polyline clip-path="url(#border_clip)" fill="none" points="551.06,524.26 552.06,524.26" stroke="black" stroke-linecap="round" stroke-width="1" /><polyline clip-path="url(#border_clip)" fill="none" points="578.18,514.78 579.18,514.78" stroke="black" stroke-linecap="round" stroke-width="1" /></svg>