<?xml version="1.0" encoding="utf-8" ?>
<svg baseProfile="full" height="1000px" version="1.1" width="1000px" xmlns="http://www.w3.org/2000/svg" xmlns:ev="http://www.w3.org/2001/xml-events" xmlns:xlink="http://www.w3.org/1999/xlink"><defs /><polygon clip-path="url(#border_clip)" fill="#ffffff" fill-rule="evenodd" points="0.5,1000.5 1000.5,1000.5000000000009 1000.500000000001,0.5000000000009663 0.5000000000010232,0.4999999999998863 0.4999999999998863,1000.4999999999999" stroke-width="0" /><polyline clip-path="url(#border_clip)" fill="none" points="0.5,1000.5 1000.5,1000.5000000000009 1000.500000000001,0.5000000000009663 0.5000000000010232,0.4999999999998863 0.4999999999998863,1000.4999999999999" stroke="#ffffff" stroke-linecap="round" stroke-width="1" /><polyline clip-path="url(#border_clip)" fill="none" points="0.4999999999998863,1000.4999999999999 500.4999999999999,1000.5000000000005 500.5000000000005,500.5000000000005 0.5000000000005116,500.49999999999983 0.49999999999982947,1000.4999999999998 10.5,990.5" stroke="#ffc0cb" stroke-linecap="round" stroke-width="1" /><text clip-path="url(#border_clip)" fill="#ff0000" style="font-family: Verdana; font-size: 8.25; font-style: normal;" text-anchor="middle" x="548.230734360834" y="410.01">main living space</text><text clip-path="url(#border_clip)" fill="#ff0000" style="font-family: Verdana; font-size: 8.25; font-style: normal;" text-anchor="middle" x="469.1394686907021" y="348.12">corridor</text><text clip-path="url(#border_clip)" fill="#ff0000" style="font-family: Verdana; font-size: 8.25; font-style: normal;" text-anchor="middle" x="396.30607282265004" y="342.96000000000004">bedroom</text><text clip-path="url(#border_clip)" fill="#ff0000" style="font-family: Verdana; font-size: 8.25; font-style: normal;" text-anchor="middle" x="535.5655737704918" y="528.75">bedroom</text><text clip-path="url(#border_clip)" fill="#ff0000" style="font-family: Verdana; font-size: 8.25; font-style: normal;" text-anchor="middle" x="648.4614687216682" y="341.18747572815533">bedroom</text><text clip-path="url(#border_clip)" fill="#ff0000" style="font-family: Verdana; font-size: 8.25; font-style: normal;" text-anchor="middle" x="376.7432082638959" y="291.2156569183763">ensuite</text><text clip-path="url(#border_clip)" fill="#ff0000" style="font-family: Verdana; font-size: 8.25; font-style: normal;" text-anchor="middle" x="675.5414687216683" y="297.19997542997544">ensuite</text><text clip-path="url(#border_clip)" fill="#ff0000" style="font-family: Verdana; font-size: 8.25; font-style: normal;" text-anchor="middle" x="477.57" y="531.890218878249">ensuite</text><polyline clip-path="url(#border_clip)" fill="none" points="500.5,634.5124704986677 0.5,1000.5" stroke="#ffffff" stroke-linecap="round" stroke-width="1" /><polyline clip-path="url(#border_clip)" fill="none" points="597.9614687216682,500.5 500.5,500.5 500.5,324.02 597.9614687216682,324.02 597.9614687216682,500.5" stroke="#ff0000" stroke-linecap="round" stroke-width="1" /><polyline clip-path="url(#border_clip)" fill="none" points="500.5,376.72 439.77893738140415,376.72 439.77893738140415,324.02 500.5,324.02 500.5,376.72" stroke="#ff0000" stroke-linecap="round" stroke-width="1" /><polyline clip-path="url(#border_clip)" fill="none" points="439.77893738140415,366.4 354.8332082638959,366.4 354.8332082638959,324.02 439.77893738140415,324.02 439.77893738140415,366.4" stroke="#ff0000" stroke-linecap="round" stroke-width="1" /><polyline clip-path="url(#border_clip)" fill="none" points="572.6311475409836,561.5 500.5,561.5 500.5,500.5 572.6311475409836,500.5 572.6311475409836,561.5" stroke="#ff0000" stroke-linecap="round" stroke-width="1" /><polyline clip-path="url(#border_clip)" fill="none" points="700.9614687216682,362.8549514563107 597.9614687216682,362.8549514563107 597.9614687216682,324.02 700.9614687216682,324.02 700.9614687216682,362.8549514563107" stroke="#ff0000" stroke-linecap="round" stroke-width="1" /><polyline clip-path="url(#border_clip)" fill="none" points="400.6532082638959,324.02 354.8332082638959,324.02 354.8332082638959,262.9113138367525 400.6532082638959,262.9113138367525 400.6532082638959,324.02" stroke="#ff0000" stroke-linecap="round" stroke-width="1" /><polyline clip-path="url(#border_clip)" fill="none" points="700.9614687216682,324.02 652.1214687216682,324.02 652.1214687216682,274.8799508599509 700.9614687216682,274.8799508599509 700.9614687216682,324.02" stroke="#ff0000" stroke-linecap="round" stroke-width="1" /><polyline clip-path="url(#border_clip)" fill="none" points="500.5,561.5 456.64,561.5 456.64,506.780437756498 500.5,506.780437756498 500.5,561.5" stroke="#ff0000" stroke-linecap="round" stroke-width="1" /><polyline clip-path="url(#border_clip)" fill="none" points="547.14,368.0 548.14,368.0" stroke="black" stroke-linecap="round" stroke-width="1" /><polyline clip-path="url(#border_clip)" fill="none" points="581.18,459.84000000000003 582.18,459.84000000000003" stroke="black" stroke-linecap="round" stroke-width="1" /><polyline clip-path="url(#border_clip)" fill="none" points="526.56,471.4 527.56,471.4" stroke="black" stroke-linecap="round" stroke-width="1" /><polyline clip-path="url(#border_clip)" fill="none" points="552.64,365.36 553.64,365.36" stroke="black" stroke-linecap="round" stroke-width="1" /><polyline clip-path="url(#border_clip)" fill="none" points="551.74,365.86 552.74,365.86" stroke="black" stroke-linecap="round" stroke-width="1" /><polyline clip-path="url(#border_clip)" fill="none" points="551.96,355.52 552.96,355.52" stroke="black" stroke-linecap="round" stroke-width="1" /><polyline clip-path="url(#border_clip)" fill="none" points="574.36,352.44 575.36,352.44" stroke="black" stroke-linecap="round" stroke-width="1" /><polyline clip-path="url(#border_clip)" fill="none" points="570.1800000000001,345.42 571.1800000000001,345.42" stroke="black" stroke-linecap="round" stroke-width="1" /><polyline clip-path="url(#border_clip)" fill="none" points="518.04,476.24 519.04,476.24" stroke="black" stroke-linecap="round" stroke-width="1" /><polyline clip-path="url(#border_clip)" fill="none" points="518.78,380.28 519.78,380.28" stroke="black" stroke-linecap="round" stroke-width="1" /><polyline clip-path="url(#border_clip)" fill="none" points="535.92,485.94 536.92,485.94" stroke="black" stroke-linecap="round" stroke-width="1" /><polyline clip-path="url(#border_clip)" fill="none" points="517.54,434.06 518.54,434.06" stroke="black" stroke-linecap="round" stroke-width="1" /><polyline clip-path="url(#border_clip)" fill="none" points="563.88,461.08 564.88,461.08" stroke="black" stroke-linecap="round" stroke-width="1" /><polyline clip-path="url(#border_clip)" fill="none" points="578.26,366.98 579.26,366.98" stroke="black" stroke-linecap="round" stroke-width="1" /><polyline clip-path="url(#border_clip)" fill="none" points="570.78,459.96 571.78,459.96" stroke="black" stroke-linecap="round" stroke-width="1" /><polyline clip-path="url(#border_clip)" fill="none" points="485.12,360.32 486.12,360.32" stroke="black" stroke-linecap="round" stroke-width="1" /><polyline clip-path="url(#border_clip)" fill="none" points="465.46,357.88 466.46,357.88" stroke="black" stroke-linecap="round" stroke-width="1" /><polyline clip-path="url(#border_clip)" fill="none" points="489.22,349.86 490.22,349.86" stroke="black" stroke-linecap="round" stroke-width="1" /><polyline clip-path="url(#border_clip)" fill="none" points="466.12,347.98 467.12,347.98" stroke="black" stroke-linecap="round" stroke-width="1" /><polyline clip-path="url(#border_clip)" fill="none" points="381.7,338.06 382.7,338.06" stroke="black" stroke-linecap="round" stroke-width="1" /><polyline clip-path="url(#border_clip)" fill="none" points="395.82,348.02 396.82,348.02" stroke="black" stroke-linecap="round" stroke-width="1" /><polyline clip-path="url(#border_clip)" fill="none" points="380.38,336.36 381.38,336.36" stroke="black" stroke-linecap="round" stroke-width="1" /><polyline clip-path="url(#border_clip)" fill="none" points="380.06,342.96000000000004 381.06,342.96000000000004" stroke="black" stroke-linecap="round" stroke-width="1" /><polyline clip-path="url(#border_clip)" fill="none" points="420.4,353.7 421.4,353.7" stroke="black" stroke-linecap="round" stroke-width="1" /><polyline clip-path="url(#border_clip)" fill="none" points="372.68,343.8 373.68,343.8" stroke="black" stroke-linecap="round" stroke-width="1" /><polyline clip-path="url(#border_clip)" fill="none" points="392.56,338.38 393.56,338.38" stroke="black" stroke-linecap="round" stroke-width="1" /><polyline clip-path="url(#border_clip)" fill="none" points="400.58,340.82 401.58,340.82" stroke="black" stroke-linecap="round" stroke-width="1" /><polyline clip-path="url(#border_clip)" fill="none" points="429.65999999999997,354.2 430.65999999999997,354.2" stroke="black" stroke-linecap="round" stroke-width="1" /><polyline clip-path="url(#border_clip)" fill="none" points="374.64,340.88 375.64,340.88" stroke="black" stroke-linecap="round" stroke-width="1" /><polyline clip-path="url(#border_clip)" fill="none" points="421.98,343.48 422.98,343.48" stroke="black" stroke-linecap="round" stroke-width="1" /><polyline clip-path="url(#border_clip)" fill="none" points="416.1,334.15999999999997 417.1,334.15999999999997" stroke="black" stroke-linecap="round" stroke-width="1" /><polyline clip-path="url(#border_clip)" fill="none" points="406.56,340.88 407.56,340.88" stroke="black" stroke-linecap="round" stroke-width="1" /><polyline clip-path="url(#border_clip)" fill="none" points="365.98,352.76 366.98,352.76" stroke="black" stroke-linecap="round" stroke-width="1" /><polyline clip-path="url(#border_clip)" fill="none" points="415.96,355.20000000000005 416.96,355.20000000000005" stroke="black" stroke-linecap="round" stroke-width="1" /><polyline clip-path="url(#border_clip)" fill="none" points="412.42,339.32000000000005 413.42,339.32000000000005" stroke="black" stroke-linecap="round" stroke-width="1" /><polyline clip-path="url(#border_clip)" fill="none" points="407.64,342.36 408.64,342.36" stroke="black" stroke-linecap="round" stroke-width="1" /><polyline clip-path="url(#border_clip)" fill="none" points="522.34,536.56 523.34,536.56" stroke="black" stroke-linecap="round" stroke-width="1" /><polyline clip-path="url(#border_clip)" fill="none" points="559.1,547.6 560.1,547.6" stroke="black" stroke-linecap="round" stroke-width="1" /><polyline clip-path="url(#border_clip)" fill="none" points="554.58,525.06 555.58,525.06" stroke="black" stroke-linecap="round" stroke-width="1" /><polyline clip-path="url(#border_clip)" fill="none" points="523.26,530.06 524.26,530.06" stroke="black" stroke-linecap="round" stroke-width="1" /><polyline clip-path="url(#border_clip)" fill="none" points="557.54,529.8 558.54,529.8" stroke="black" stroke-linecap="round" stroke-width="1" /><polyline clip-path="url(#border_clip)" fill="none" points="545.7,524.2 546.7,524.2" stroke="black" stroke-linecap="round" stroke-width="1" /><polyline clip-path="url(#border_clip)" fill="none" points="532.3,532.62 533.3,532.62" stroke="black" stroke-linecap="round" stroke-width="1" /><polyline clip-path="url(#border_clip)" fill="none" points="517.64,529.4 518.64,529.4" stroke="black" stroke-linecap="round" stroke-width="1" /><polyline clip-path="url(#border_clip)" fill="none" points="549.14,519.38 550.14,519.38" stroke="black" stroke-linecap="round" stroke-width="1" /><polyline clip-path="url(#border_clip)" fill="none" points="544.86,514.08 545.86,514.08" stroke="black" stroke-linecap="round" stroke-width="1" /><polyline clip-path="url(#border_clip)" fill="none" points="518.1,516.84 519.1,516.84" stroke="black" stroke-linecap="round" stroke-width="1" /><polyline clip-path="url(#border_clip)" fill="none" points="547.44,547.36 548.44,547.36" stroke="black" stroke-linecap="round" stroke-width="1" /><polyline clip-path="url(#border_clip)" fill="none" points="550.7,512.76 551.7,512.76" stroke="black" stroke-linecap="round" stroke-width="1" /><polyline clip-path="url(#border_clip)" fill="none" points="548.8,517.08 549.8,517.08" stroke="black" stroke-linecap="round" stroke-width="1" /><polyline clip-path="url(#border_clip)" fill="none" points="511.9,538.02 512.9,538.02" stroke="black" stroke-linecap="round" stroke-width="1" /><polyline clip-path="url(#border_clip)" fill="none" points="541.0,519.92 542.0,519.92" stroke="black" stroke-linecap="round" stroke-width="1" /><polyline clip-path="url(#border_clip)" fill="none" points="511.54,516.06 512.54,516.06" stroke="black" stroke-linecap="round" stroke-width="1" /><polyline clip-path="url(#border_clip)" fill="none" points="559.06,519.62 560.06,519.62" stroke="black" stroke-linecap="round" stroke-width="1" /><polyline clip-path="url(#border_clip)" fill="none" points="684.06,334.24 685.06,334.24" stroke="black" stroke-linecap="round" stroke-width="1" /><polyline clip-path="url(#border_clip)" fill="none" points="642.3199999999999,351.82 643.3199999999999,351.82" stroke="black" stroke-linecap="round" stroke-width="1" /><polyline clip-path="url(#border_clip)" fill="none" points="636.8,349.46000000000004 637.8,349.46000000000004" stroke="black" stroke-linecap="round" stroke-width="1" /><polyline clip-path="url(#border_clip)" fill="none" points="616.6800000000001,337.92 617.6800000000001,337.92" stroke="black" stroke-linecap="round" stroke-width="1" /><polyline clip-path="url(#border_clip)" fill="none" points="685.36,346.53999999999996 686.36,346.53999999999996" stroke="black" stroke-linecap="round" stroke-width="1" /><polyline clip-path="url(#border_clip)" fill="none" points="683.1800000000001,352.44 684.1800000000001,352.44" stroke="black" stroke-linecap="round" stroke-width="1" /><polyline clip-path="url(#border_clip)" fill="none" points="637.98,349.08000000000004 638.98,349.08000000000004" stroke="black" stroke-linecap="round" stroke-width="1" /><polyline clip-path="url(#border_clip)" fill="none" points="650.24,341.34000000000003 651.24,341.34000000000003" stroke="black" stroke-linecap="round" stroke-width="1" /><polyline clip-path="url(#border_clip)" fill="none" points="626.08,348.65999999999997 627.08,348.65999999999997" stroke="black" stroke-linecap="round" stroke-width="1" /><polyline clip-path="url(#border_clip)" fill="none" points="609.64,337.0 610.64,337.0" stroke="black" stroke-linecap="round" stroke-width="1" /><polyline clip-path="url(#border_clip)" fill="none" points="628.22,350.52 629.22,350.52" stroke="black" stroke-linecap="round" stroke-width="1" /><polyline clip-path="url(#border_clip)" fill="none" points="623.42,343.29999999999995 624.42,343.29999999999995" stroke="black" stroke-linecap="round" stroke-width="1" /><polyline clip-path="url(#border_clip)" fill="none" points="655.04,335.52 656.04,335.52" stroke="black" stroke-linecap="round" stroke-width="1" /><polyline clip-path="url(#border_clip)" fill="none" points="690.24,343.15999999999997 691.24,343.15999999999997" stroke="black" stroke-linecap="round" stroke-width="1" /><polyline clip-path="url(#border_clip)" fill="none" points="619.12,336.18 620.12,336.18" stroke="black" stroke-linecap="round" stroke-width="1" /><polyline clip-path="url(#border_clip)" fill="none" points="641.96,351.24 642.96,351.24" stroke="black" stroke-linecap="round" stroke-width="1" /><polyline clip-path="url(#border_clip)" fill="none" points="631.24,349.0 632.24,349.0" stroke="black" stroke-linecap="round" stroke-width="1" /><polyline clip-path="url(#border_clip)" fill="none" points="651.44,352.68 652.44,352.68" stroke="black" stroke-linecap="round" stroke-width="1" /><polyline clip-path="url(#border_clip)" fill="none" points="662.4,348.64 663.4,348.64" stroke="black" stroke-linecap="round" stroke-width="1" /><polyline clip-path="url(#border_clip)" fill="none" points="383.74,282.96 384.74,282.96" stroke="black" stroke-linecap="round" stroke-width="1" /><polyline clip-path="url(#border_clip)" fill="none" points="375.62,297.96 376.62,297.96" stroke="black" stroke-linecap="round" stroke-width="1" /><polyline clip-path="url(#border_clip)" fill="none" points="381.96000000000004,299.88 382.96000000000004,299.88" stroke="black" stroke-linecap="round" stroke-width="1" /><polyline clip-path="url(#border_clip)" fill="none" points="373.38,285.38 374.38,285.38" stroke="black" stroke-linecap="round" stroke-width="1" /><polyline clip-path="url(#border_clip)" fill="none" points="664.14,299.92 665.14,299.92" stroke="black" stroke-linecap="round" stroke-width="1" /><polyline clip-path="url(#border_clip)" fill="none" points="687.14,298.38 688.14,298.38" stroke="black" stroke-linecap="round" stroke-width="1" /><polyline clip-path="url(#border_clip)" fill="none" points="665.88,285.08 666.88,285.08" stroke="black" stroke-linecap="round" stroke-width="1" /><polyline clip-path="url(#border_clip)" fill="none" points="678.44,288.53999999999996 679.44,288.53999999999996" stroke="black" stroke-linecap="round" stroke-width="1" /><polyline clip-path="url(#border_clip)" fill="none" points="690.54,309.53999999999996 691.54,309.53999999999996" stroke="black" stroke-linecap="round" stroke-width="1" /><polyline clip-path="url(#border_clip)" fill="none" points="673.44,299.08000000000004 674.44,299.08000000000004" stroke="black" stroke-linecap="round" stroke-width="1" /><polyline clip-path="url(#border_clip)" fill="none" points="673.5799999999999,313.42 674.5799999999999,313.42" stroke="black" stroke-linecap="round" stroke-width="1" /><polyline clip-path="url(#border_clip)" fill="none" points="484.84,534.72 485.84,534.72" stroke="black" stroke-linecap="round" stroke-width="1" /><polyline clip-path="url(#border_clip)" fill="none" points="484.96,519.76 485.96,519.76" stroke="black" stroke-linecap="round" stroke-width="1" /><polyline clip-path="url(#border_clip)" fill="none" points="489.22,542.74 490.22,542.74" stroke="black" stroke-linecap="round" stroke-width="1" /><polyline clip-path="url(#border_clip)" fill="none" points="479.98,531.74 480.98,531.74" stroke="black" stroke-linecap="round" stroke-width="1" /><polyline clip-path="url(#border_clip)" fill="none" points="483.58,538.74 484.58,538.74" stroke="black" stroke-linecap="round" stroke-width="1" /></svg>