<?xml version="1.0" encoding="utf-8" ?>
<svg baseProfile="full" height="1000px" version="1.1" width="1000px" xmlns="http://www.w3.org/2000/svg" xmlns:ev="http://www.w3.org/2001/xml-events" xmlns:xlink="http://www.w3.org/1999/xlink"><defs /><polygon clip-path="url(#border_clip)" fill="#ffffff" fill-rule="evenodd" points="0.5,1000.5 1000.5,1000.5000000000025 1000.5000000000025,0.5000000000024443 0.5000000000025011,0.4999999999998863 0.4999999999998863,1000.4999999999999" stroke-width="0" /><polyline clip-path="url(#border_clip)" fill="none" points="0.5,1000.5 1000.5,1000.5000000000025 1000.5000000000025,0.5000000000024443 0.5000000000025011,0.4999999999998863 0.4999999999998863,1000.4999999999999" stroke="#ffffff" stroke-linecap="round" stroke-width="1" /><polyline clip-path="url(#border_clip)" fill="none" points="0.4999999999998863,1000.4999999999999 500.4999999999999,1000.5000000000013 500.50000000000125,500.50000000000125 0.5000000000012506,500.49999999999983 0.49999999999982947,1000.4999999999998 10.5,990.5" stroke="#ffc0cb" stroke-linecap="round" stroke-width="1" /><text clip-path="url(#border_clip)" fill="#ff0000" style="font-family: Verdana; font-size: 8.25; font-style: normal;" text-anchor="middle" x="578.886805365453" y="425.19">main living space</text><text clip-path="url(#border_clip)" fill="#ff0000" style="font-family: Verdana; font-size: 8.25; font-style: normal;" text-anchor="middle" x="467.203552609213" y="439.42">bedroom</text><text clip-path="url(#border_clip)" fill="#ff0000" style="font-family: Verdana; font-size: 8.25; font-style: normal;" text-anchor="middle" x="686.596050818052" y="398.03">bedroom</text><text clip-path="url(#border_clip)" fill="#ff0000" style="font-family: Verdana; font-size: 8.25; font-style: normal;" text-anchor="middle" x="475.0501222493888" y="526.88">ensuite</text><text clip-path="url(#border_clip)" fill="#ff0000" style="font-family: Verdana; font-size: 8.25; font-style: normal;" text-anchor="middle" x="736.8322966027876" y="379.51">ensuite</text><polyline clip-path="url(#border_clip)" fill="none" points="500.5,500.5 0.5,1000.5" stroke="#ffffff" stroke-linecap="round" stroke-width="1" /><polyline clip-path="url(#border_clip)" fill="none" points="659.2736107309061,500.5 500.5,500.5 500.5,354.38 659.2736107309061,354.38 659.2736107309061,500.5" stroke="#ff0000" stroke-linecap="round" stroke-width="1" /><polyline clip-path="url(#border_clip)" fill="none" points="500.5,500.5 435.90710521842595,500.5 435.90710521842595,382.84000000000003 500.5,382.84000000000003 500.5,500.5" stroke="#ff0000" stroke-linecap="round" stroke-width="1" /><polyline clip-path="url(#border_clip)" fill="none" points="715.918490905198,446.18 659.2736107309061,446.18 659.2736107309061,354.38 715.918490905198,354.38 715.918490905198,446.18" stroke="#ff0000" stroke-linecap="round" stroke-width="1" /><polyline clip-path="url(#border_clip)" fill="none" points="500.5,557.76 451.6002444987775,557.76 451.6002444987775,500.5 500.5,500.5 500.5,557.76" stroke="#ff0000" stroke-linecap="round" stroke-width="1" /><polyline clip-path="url(#border_clip)" fill="none" points="759.7461023003771,409.14 715.918490905198,409.14 715.918490905198,354.38 759.7461023003771,354.38 759.7461023003771,409.14" stroke="#ff0000" stroke-linecap="round" stroke-width="1" /><polyline clip-path="url(#border_clip)" fill="none" points="628.3,452.24 629.3,452.24" stroke="black" stroke-linecap="round" stroke-width="1" /><polyline clip-path="url(#border_clip)" fill="none" points="545.12,442.02 546.12,442.02" stroke="black" stroke-linecap="round" stroke-width="1" /><polyline clip-path="url(#border_clip)" fill="none" points="544.96,439.96 545.96,439.96" stroke="black" stroke-linecap="round" stroke-width="1" /><polyline clip-path="url(#border_clip)" fill="none" points="544.7,382.84000000000003 545.7,382.84000000000003" stroke="black" stroke-linecap="round" stroke-width="1" /><polyline clip-path="url(#border_clip)" fill="none" points="549.62,471.7 550.62,471.7" stroke="black" stroke-linecap="round" stroke-width="1" /><polyline clip-path="url(#border_clip)" fill="none" points="587.48,473.84 588.48,473.84000000000003" stroke="black" stroke-linecap="round" stroke-width="1" /><polyline clip-path="url(#border_clip)" fill="none" points="541.6,425.94 542.6,425.94" stroke="black" stroke-linecap="round" stroke-width="1" /><polyline clip-path="url(#border_clip)" fill="none" points="610.1,441.15999999999997 611.1,441.15999999999997" stroke="black" stroke-linecap="round" stroke-width="1" /><polyline clip-path="url(#border_clip)" fill="none" points="576.38,464.46 577.38,464.46" stroke="black" stroke-linecap="round" stroke-width="1" /><polyline clip-path="url(#border_clip)" fill="none" points="613.9,415.04 614.9,415.04" stroke="black" stroke-linecap="round" stroke-width="1" /><polyline clip-path="url(#border_clip)" fill="none" points="534.34,448.94 535.34,448.94" stroke="black" stroke-linecap="round" stroke-width="1" /><polyline clip-path="url(#border_clip)" fill="none" points="622.76,469.18 623.76,469.18" stroke="black" stroke-linecap="round" stroke-width="1" /><polyline clip-path="url(#border_clip)" fill="none" points="631.14,401.65999999999997 632.14,401.65999999999997" stroke="black" stroke-linecap="round" stroke-width="1" /><polyline clip-path="url(#border_clip)" fill="none" points="448.24,396.94 449.24,396.94" stroke="black" stroke-linecap="round" stroke-width="1" /><polyline clip-path="url(#border_clip)" fill="none" points="475.0,443.82 476.0,443.82" stroke="black" stroke-linecap="round" stroke-width="1" /><polyline clip-path="url(#border_clip)" fill="none" points="467.96,426.52 468.96,426.52" stroke="black" stroke-linecap="round" stroke-width="1" /><polyline clip-path="url(#border_clip)" fill="none" points="477.26,438.52 478.26,438.52" stroke="black" stroke-linecap="round" stroke-width="1" /><polyline clip-path="url(#border_clip)" fill="none" points="467.38,438.26 468.38,438.26" stroke="black" stroke-linecap="round" stroke-width="1" /><polyline clip-path="url(#border_clip)" fill="none" points="472.66,419.48 473.66,419.48" stroke="black" stroke-linecap="round" stroke-width="1" /><polyline clip-path="url(#border_clip)" fill="none" points="477.4,420.94 478.4,420.94" stroke="black" stroke-linecap="round" stroke-width="1" /><polyline clip-path="url(#border_clip)" fill="none" points="456.0,432.98 457.0,432.98" stroke="black" stroke-linecap="round" stroke-width="1" /><polyline clip-path="url(#border_clip)" fill="none" points="461.74,417.58 462.74,417.58" stroke="black" stroke-linecap="round" stroke-width="1" /><polyline clip-path="url(#border_clip)" fill="none" points="464.18,466.82 465.18,466.82" stroke="black" stroke-linecap="round" stroke-width="1" /><polyline clip-path="url(#border_clip)" fill="none" points="475.32,447.06 476.32,447.06" stroke="black" stroke-linecap="round" stroke-width="1" /><polyline clip-path="url(#border_clip)" fill="none" points="481.9,430.08 482.9,430.08" stroke="black" stroke-linecap="round" stroke-width="1" /><polyline clip-path="url(#border_clip)" fill="none" points="476.42,399.12 477.42,399.12" stroke="black" stroke-linecap="round" stroke-width="1" /><polyline clip-path="url(#border_clip)" fill="none" points="478.02,403.62 479.02,403.62" stroke="black" stroke-linecap="round" stroke-width="1" /><polyline clip-path="url(#border_clip)" fill="none" points="479.98,407.6 480.98,407.6" stroke="black" stroke-linecap="round" stroke-width="1" /><polyline clip-path="url(#border_clip)" fill="none" points="471.76,482.96 472.76,482.96" stroke="black" stroke-linecap="round" stroke-width="1" /><polyline clip-path="url(#border_clip)" fill="none" points="689.9,396.91999999999996 690.9,396.91999999999996" stroke="black" stroke-linecap="round" stroke-width="1" /><polyline clip-path="url(#border_clip)" fill="none" points="676.78,417.12 677.78,417.12" stroke="black" stroke-linecap="round" stroke-width="1" /><polyline clip-path="url(#border_clip)" fill="none" points="669.8,404.44 670.8,404.44" stroke="black" stroke-linecap="round" stroke-width="1" /><polyline clip-path="url(#border_clip)" fill="none" points="700.86,412.72 701.86,412.72" stroke="black" stroke-linecap="round" stroke-width="1" /><polyline clip-path="url(#border_clip)" fill="none" points="697.26,406.1 698.26,406.1" stroke="black" stroke-linecap="round" stroke-width="1" /><polyline clip-path="url(#border_clip)" fill="none" points="669.54,367.70000000000005 670.54,367.70000000000005" stroke="black" stroke-linecap="round" stroke-width="1" /><polyline clip-path="url(#border_clip)" fill="none" points="678.26,394.62 679.26,394.62" stroke="black" stroke-linecap="round" stroke-width="1" /><polyline clip-path="url(#border_clip)" fill="none" points="696.46,418.18 697.46,418.18" stroke="black" stroke-linecap="round" stroke-width="1" /><polyline clip-path="url(#border_clip)" fill="none" points="705.88,372.34000000000003 706.88,372.34000000000003" stroke="black" stroke-linecap="round" stroke-width="1" /><polyline clip-path="url(#border_clip)" fill="none" points="683.7,414.48 684.7,414.48" stroke="black" stroke-linecap="round" stroke-width="1" /><polyline clip-path="url(#border_clip)" fill="none" points="695.9200000000001,410.12 696.9200000000001,410.12" stroke="black" stroke-linecap="round" stroke-width="1" /><polyline clip-path="url(#border_clip)" fill="none" points="678.72,423.3 679.72,423.3" stroke="black" stroke-linecap="round" stroke-width="1" /><polyline clip-path="url(#border_clip)" fill="none" points="680.1,401.65999999999997 681.1,401.65999999999997" stroke="black" stroke-linecap="round" stroke-width="1" /><polyline clip-path="url(#border_clip)" fill="none" points="673.24,418.88 674.24,418.88" stroke="black" stroke-linecap="round" stroke-width="1" /><polyline clip-path="url(#border_clip)" fill="none" points="480.6,529.64 481.6,529.64" stroke="black" stroke-linecap="round" stroke-width="1" /><polyline clip-path="url(#border_clip)" fill="none" points="462.74,521.44 463.74,521.44" stroke="black" stroke-linecap="round" stroke-width="1" /><polyline clip-path="url(#border_clip)" fill="none" points="484.62,522.92 485.62,522.92" stroke="black" stroke-linecap="round" stroke-width="1" /><polyline clip-path="url(#border_clip)" fill="none" points="471.92,543.38 472.92,543.38" stroke="black" stroke-linecap="round" stroke-width="1" /><polyline clip-path="url(#border_clip)" fill="none" points="463.28,525.42 464.28,525.42" stroke="black" stroke-linecap="round" stroke-width="1" /><polyline clip-path="url(#border_clip)" fill="none" points="742.64,381.26 743.64,381.26" stroke="black" stroke-linecap="round" stroke-width="1" /><polyline clip-path="url(#border_clip)" fill="none" points="739.32,394.28 740.32,394.28" stroke="black" stroke-linecap="round" stroke-width="1" /><polyline clip-path="url(#border_clip)" fill="none" points="734.64,367.78 735.64,367.78" stroke="black" stroke-linecap="round" stroke-width="1" /></svg>